<?xml version="1.0" encoding="utf-8"?>
<!-- Generator: Adobe Illustrator 24.1.2, SVG Export Plug-In . SVG Version: 6.00 Build 0)  -->
<svg version="1.1" id="Layer_1" xmlns="http://www.w3.org/2000/svg" xmlns:xlink="http://www.w3.org/1999/xlink" x="0px" y="0px"
	 viewBox="0 0 841.89 595.28" style="enable-background:new 0 0 841.89 595.28;" xml:space="preserve">
<style type="text/css">
	.st0{fill:#706F6F;stroke:#000000;stroke-width:0.5546;stroke-miterlimit:10;}
	.st1{fill:#344697;stroke:#000000;stroke-miterlimit:10;}
	.st2{fill:none;stroke:#000000;stroke-miterlimit:10;}
	.st3{fill:#F8AC17;stroke:#000000;stroke-miterlimit:10;}
	.st4{fill:#C6C6C6;stroke:#000000;stroke-miterlimit:10;}
	.st5{fill:#3063AD;stroke:#000000;stroke-miterlimit:10;}
	.st6{opacity:0.35;fill:#B2B2B2;}
	.st7{fill:#706F6F;stroke:#000000;stroke-miterlimit:10;}
	.st8{fill:#E62C22;stroke:#000000;stroke-miterlimit:10;}
	.st9{fill:#FFFFFF;}
	.st10{fill:#020203;}
	.st11{fill:#F0E522;}
	.st12{fill:#878787;stroke:#000000;stroke-miterlimit:10;}
	.st13{fill:#706F6F;}
	.st14{fill:#FCEA10;stroke:#000000;stroke-miterlimit:10;}
	.st15{fill:#878787;stroke:#000000;stroke-width:1.0699;stroke-miterlimit:10;}
	.st16{fill:#878787;stroke:#000000;stroke-width:1.0428;stroke-miterlimit:10;}
	.st17{fill:#878787;stroke:#000000;stroke-width:1.0047;stroke-miterlimit:10;}
	.st18{fill:#C6C6C6;stroke:#000000;stroke-width:0.5546;stroke-miterlimit:10;}
</style>
<path class="st0" d="M585.99,366.26c0.53-0.2,1.06-0.4,1.58-0.61l0.18-0.07c50.91-20.04,52.06-53,2.59-73.61
	c-49.48-20.62-130.85-21.09-181.76-1.05c-34.65,13.64-46.25,33.26-34.54,50.91l-0.51,0.2l-131.94-5.53l-26.15,67.77
	c-43.27-5.29-92.71-0.83-127.42,12.83c-50.91,20.04-52.06,53-2.59,73.62c49.42,20.59,130.66,21.09,181.58,1.12l0.17-0.07
	c0.7-0.28,1.39-0.55,2.06-0.83l0.05,0.02c-0.71,0.27-1.42,0.53-2.12,0.81l-0.17,0.07c-50.91,20.04-52.06,53-2.59,73.61
	c49.48,20.62,130.85,21.09,181.76,1.05c34.74-13.67,46.93-33.4,35.05-51.08l0.03-0.02c5.17,8.85,16.41,17.23,33.2,24.23
	c49.48,20.62,130.85,21.09,181.76,1.05c50.91-20.04,52.07-52.99,2.59-73.61c-16.73-6.97-37.11-11.64-58.72-13.99l0.14-0.2
	c43.18,5.22,91.89,1.08,126.5-12.54c50.91-20.04,52.06-53,2.59-73.62c-49.42-20.59-130.66-21.09-181.58-1.12l-0.18,0.07
	c-0.52,0.2-1.04,0.41-1.55,0.62"/>
<path class="st1" d="M473.54,334.23"/>
<path class="st2" d="M640.09,453.06c21.61,2.35,41.99,7.02,58.72,13.99c49.48,20.62,48.32,53.58-2.59,73.61
	c-50.91,20.04-132.28,19.57-181.76-1.05c-16.79-7-28.03-15.37-33.2-24.23"/>
<path class="st2" d="M586.02,366.27c0.51-0.21,1.03-0.42,1.55-0.62l0.18-0.07c50.92-19.97,132.17-19.47,181.58,1.12
	c49.48,20.62,48.32,53.58-2.59,73.62c-34.62,13.63-83.32,17.77-126.5,12.54"/>
<path class="st2" d="M648.26,432.57c0.52-4.78,0.1-9.57-1.26-14.33c-3.85-13.44-15.21-26.6-34.14-38.37"/>
<path class="st2" d="M481.27,515.39c11.88,17.68-0.34,37.43-35.08,51.1c-50.91,20.04-132.29,19.57-181.76-1.05
	c-49.47-20.62-48.32-53.58,2.59-73.61l0.17-0.07c0.7-0.28,1.41-0.54,2.12-0.81"/>
<path class="st2" d="M302.07,502.19c28.52,8,60.68,12.98,93.75,14.92c11.7,0.69,23.52,0.99,35.33,0.92"/>
<path class="st3" d="M340.65,317.65c16.76,6.98,27.71,15.39,32.88,24.22c-36.39,3.71-70.95,11.23-99.8,22.59
	c-28.85,11.36-48.41,25.13-58.59,39.76c-21.66-2.35-42.09-7.02-58.84-14c-49.48-20.62-48.32-53.58,2.59-73.61
	C209.8,296.56,291.18,297.03,340.65,317.65z"/>
<path class="st2" d="M585.99,366.26c0.53-0.2,1.06-0.4,1.58-0.61l0.18-0.07c50.91-20.04,52.06-53,2.59-73.61
	c-49.48-20.62-130.85-21.09-181.76-1.05c-34.65,13.64-46.25,33.26-34.54,50.91c0,0-0.73,0.07,0,0"/>
<path class="st2" d="M269.26,490.92c-0.68,0.28-1.36,0.56-2.06,0.83l-0.17,0.07c-50.92,19.97-132.17,19.47-181.58-1.12
	c-49.48-20.62-48.32-53.58,2.59-73.62c34.71-13.66,84.15-18.12,127.42-12.83"/>
<path class="st2" d="M207.05,424.42c-26.93-3.29-58.81-0.9-80.41,7.6c-31.68,12.47-32.4,32.98-1.61,45.81
	c30.75,12.82,81.31,13.12,113,0.7l0.11-0.04c0.44-0.17,3.34-1.31,3.76-1.48"/>
<path class="st4" d="M552.42,354.78c0.44-0.17,3.33-1.31,3.76-1.48l0.11-0.04c31.57-12.47,32.26-32.95,1.5-45.77
	c-30.79-12.83-81.43-13.13-113.11-0.66c-21.6,8.5-28.41,21.34-21.05,32.34C423.64,339.17,503.84,325.55,552.42,354.78
	c0.25,0.15,0.53-0.21,0.8-0.31"/>
<path class="st2" d="M430.96,517.74c7.36,10.99,0.55,23.84-21.05,32.34c-31.68,12.47-82.32,12.18-113.11-0.66
	c-30.75-12.82-30.07-33.29,1.5-45.77l0.11-0.04c0.44-0.17,3.32-1.32,3.76-1.48"/>
<path class="st2" d="M647.55,432.48c26.93,3.29,58.81,0.9,80.41-7.6c31.68-12.47,32.4-32.98,1.61-45.81
	c-30.75-12.82-81.31-13.12-112.99-0.7l-0.11,0.04c-0.44,0.17-3.34,1.31-3.76,1.48"/>
<path class="st5" d="M627.11,467.03c14.49,1.58,30.38,5.05,41.6,9.72c33.18,13.83,32.4,35.93-1.74,49.36
	c-34.14,13.44-88.7,13.12-121.88-0.71c-11.26-4.69-18.6-10.34-22.07-16.27l0.15,0.13c9.41-1.83,18.57-3.94,27.39-6.34l0.01,0
	c10.88-2.96,21.25-6.35,30.98-10.18c9.44-3.71,17.88-7.69,25.32-11.87C614.73,476.47,621.48,471.83,627.11,467.03"/>
<path class="st2" d="M647.83,432.52c-28.25,0.14-50.55,4.06-55.88,12.25c-6.32,9.71,5.83,18.05,35.16,22.27"/>
<polygon class="st6" points="798.8,144.17 285.38,251.23 239.36,128.6 372.75,63.86 "/>
<path class="st7" d="M302.18,502.13c30.56-12.03,34.27-22.17,14.17-30.57c-17.15-7.16-44.4-6.38-74.45,5.45"/>
<path class="st2" d="M430.96,517.74c1.16-11.43,12.34-19.16,31.9-22.15c21.21-3.25,50.6,1.57,60.16,13.56"/>
<path class="st2" d="M241.9,477.01l-0.46-0.29c-25.51-16.16-37.03-34.03-34.39-52.47"/>
<path class="st8" d="M552.42,354.78c-49.33-29.24-119.98-15.35-178.38-12.96c0,0,50.99,86.88,274.22,90.75
	c0,0,1.06-20.95-15.69-43.52"/>
<path class="st7" d="M476.99,216.1c0,0-114.67-2.56-160.65-21.79c-45.97-19.23-76.99-65.71-76.99-65.71
	c-43.27-5.29-116.63-0.83-151.34,12.83c-50.91,20.04-52.06,53-2.59,73.62c49.42,20.59,130.66,21.09,181.58,1.12
	c-50.91,20.04-52.06,53-2.59,73.61c49.48,20.62,130.85,21.09,181.76,1.05C480.93,277.16,488.87,233.78,476.99,216.1z M267.19,216.1
	c0.7-0.28,1.39-0.55,2.06-0.83l0.05,0.02C268.6,215.56,267.89,215.82,267.19,216.1z"/>
<path class="st7" d="M585.99,90.6c0.53-0.2,1.06-0.4,1.58-0.61l0.18-0.07c50.91-20.04,52.06-53,2.59-73.61
	C540.86-4.31,459.48-4.78,408.57,15.26c-34.65,13.64-46.25,33.26-34.54,50.91l-0.51,0.2c0,0,116.03,20.16,161.73,39.24
	c55.06,22.99,104.97,71.6,104.97,71.6c43.18,5.22,91.89,1.08,126.5-12.54c50.91-20.04,52.06-53,2.59-73.62
	c-49.42-20.59-130.66-21.09-181.58-1.12l-0.18,0.07c-0.52,0.2-1.04,0.41-1.55,0.62"/>
<path class="st7" d="M612.7,379.9c-30.05,11.83-55.34,12.47-72.49,5.31c-19.93-8.32-14.9-19.59,14.91-31.49"/>
<path class="st2" d="M241.9,199.76"/>
<polygon class="st2" points="241.9,477.01 241.59,477.13 241.74,476.91 "/>
<path class="st4" d="M207.05,424.24c-2.64,18.44,8.88,36.32,34.39,52.47l0.46,0.29c-0.42,0.17-3.33,1.31-3.76,1.48l-0.11,0.04
	c-31.69,12.43-82.24,12.12-113-0.7c-30.79-12.83-30.07-33.34,1.61-45.81c21.6-8.5,53.48-10.89,80.41-7.6"/>
<path class="st4" d="M302.07,502.16c28.52,8,60.68,12.98,93.75,14.92c11.7,0.69,23.52,0.99,35.33,0.92l0.35,0.55
	c6.47,10.8-0.54,23.21-21.59,31.49c-31.68,12.47-82.32,12.18-113.11-0.66c-30.75-12.82-30.07-33.29,1.5-45.77l0.11-0.04
	c0.35-0.14,2.26-0.9,3.24-1.28L302.07,502.16z"/>
<g>
	<path class="st4" d="M729.56,379.08c-30.75-12.82-81.31-13.12-112.99-0.7l-0.11,0.04c-0.36,0.14-2.4,0.94-3.34,1.31l0.34,0.52
		c-0.2-0.13-0.4-0.26-0.6-0.39c3.66,2.21,7.71,4.96,11.89,8.36c3.55,2.88,6.61,5.75,9.22,8.45c3.31,3.32,7.67,8.53,10.8,15.59
		c1.1,2.49,1.89,5.7,3.46,12.11c0.29,1.2,0.76,3.2,0.22,5.62c-0.24,1.09-0.67,2.53-0.55,2.54c0.12,0.01,0.24,0.03,0.36,0.04l0,0
		c0,0,0,0,0,0c26.77,3.17,58.29,0.75,79.7-7.68C759.63,412.42,760.35,391.91,729.56,379.08z"/>
	<path class="st4" d="M612.7,379.9c0.07-0.03,0.23-0.09,0.42-0.17l0,0L612.7,379.9z"/>
</g>
<path class="st9" d="M552.42,77.42c0.44-0.17,3.33-1.31,3.76-1.48l0.11-0.04c31.57-12.47,32.26-32.95,1.5-45.77
	c-30.79-12.83-81.43-13.13-113.11-0.66c-21.6,8.5-28.41,21.34-21.05,32.34C423.64,61.81,503.84,48.19,552.42,77.42
	c0.25,0.15,0.53-0.21,0.8-0.31"/>
<path class="st9" d="M207.05,146.88c-2.64,18.44,8.88,36.32,34.39,52.47l0.46,0.29c-0.42,0.17-3.33,1.31-3.76,1.48l-0.11,0.04
	c-31.69,12.43-82.24,12.12-113-0.7c-30.79-12.83-30.07-33.34,1.61-45.81c21.6-8.5,53.48-10.89,80.41-7.6"/>
<path class="st9" d="M302.07,224.8c28.52,8,60.68,12.98,93.75,14.92c11.7,0.69,23.52,0.99,35.33,0.92l0.35,0.55
	c6.47,10.8-0.54,23.21-21.59,31.49c-31.68,12.47-82.32,12.18-113.11-0.66c-30.75-12.82-30.07-33.29,1.5-45.77l0.11-0.04
	c0.35-0.14,2.26-0.9,3.24-1.28L302.07,224.8z"/>
<g>
	<path class="st9" d="M729.56,101.72c-30.75-12.82-81.31-13.12-112.99-0.7l-0.11,0.04c-0.36,0.14-2.4,0.94-3.34,1.31l0.34,0.52
		c-0.2-0.13-0.4-0.26-0.6-0.39c3.66,2.21,7.71,4.96,11.89,8.36c3.55,2.88,6.61,5.75,9.22,8.45c3.31,3.32,7.67,8.53,10.8,15.59
		c1.1,2.49,1.89,5.7,3.46,12.11c0.29,1.2,0.76,3.2,0.22,5.62c-0.24,1.09-0.67,2.53-0.55,2.54c0.12,0.01,0.24,0.03,0.36,0.04l0,0
		c0,0,0,0,0,0c26.77,3.17,58.29,0.75,79.7-7.68C759.63,135.06,760.35,114.55,729.56,101.72z"/>
	<path class="st9" d="M612.7,102.54c0.07-0.03,0.23-0.09,0.42-0.17l0,0L612.7,102.54z"/>
</g>
<g>
	<polygon class="st9" points="516,328.7 505.16,327.49 505.16,326.4 516,327.64 	"/>
	<polygon class="st9" points="516,330.52 505.16,329.3 505.16,328.22 516,329.46 	"/>
	<polygon class="st9" points="516,332.34 505.16,331.12 505.16,330.04 516,331.28 	"/>
	<polyline class="st9" points="515.78,334.13 505.16,332.94 505.16,331.85 515.99,333.12 	"/>
	<g>
		<g>
			<path class="st10" d="M515.96,333.23l-0.1,0.49C515.91,333.56,515.94,333.4,515.96,333.23z"/>
		</g>
		<g>
			<path class="st10" d="M505.17,332.94c0.1,1.63,1.23,3,2.74,3.45c0.57,0.9,1.58,1.49,2.72,1.49c1.16,0,2.18-0.61,2.75-1.53
				c1.07-0.36,1.93-1.18,2.35-2.22L505.17,332.94z"/>
		</g>
		<g>
			<path class="st10" d="M505.16,331.85l10.82,1.27c0.01-0.14,0.02-0.27,0.02-0.41v-0.37l-10.84-1.22V331.85z"/>
		</g>
		<g>
			<polygon class="st10" points="505.16,330.04 516,331.28 516,330.52 505.16,329.3 			"/>
		</g>
		<g>
			<path class="st10" d="M512.16,321.18H509c-2.11,0-3.84,1.73-3.84,3.84v1.37l10.84,1.24v-2.62
				C516,322.91,514.27,321.18,512.16,321.18z"/>
		</g>
		<g>
			<polygon class="st10" points="505.16,328.22 516,329.46 516,328.7 505.16,327.49 			"/>
		</g>
	</g>
	<g>
		<circle class="st11" cx="510.61" cy="315.4" r="10.49"/>
	</g>
</g>
<g>
	<polygon class="st9" points="698.44,408.89 687.6,407.67 687.6,406.58 698.44,407.83 	"/>
	<polygon class="st9" points="698.44,410.7 687.6,409.48 687.6,408.4 698.44,409.64 	"/>
	<polygon class="st9" points="698.44,412.52 687.6,411.3 687.6,410.22 698.44,411.46 	"/>
	<polyline class="st9" points="698.22,414.31 687.6,413.12 687.6,412.03 698.43,413.3 	"/>
	<g>
		<g>
			<path class="st10" d="M698.4,413.42l-0.1,0.49C698.35,413.74,698.38,413.58,698.4,413.42z"/>
		</g>
		<g>
			<path class="st10" d="M687.61,413.12c0.1,1.63,1.23,3,2.74,3.45c0.57,0.9,1.58,1.49,2.72,1.49c1.16,0,2.18-0.61,2.75-1.53
				c1.07-0.36,1.93-1.18,2.35-2.22L687.61,413.12z"/>
		</g>
		<g>
			<path class="st10" d="M687.6,412.03l10.82,1.27c0.01-0.14,0.02-0.27,0.02-0.41v-0.37l-10.84-1.22V412.03z"/>
		</g>
		<g>
			<polygon class="st10" points="687.6,410.22 698.44,411.46 698.44,410.7 687.6,409.48 			"/>
		</g>
		<g>
			<path class="st10" d="M694.6,401.37h-3.15c-2.11,0-3.84,1.73-3.84,3.84v1.37l10.84,1.24v-2.62
				C698.44,403.1,696.71,401.37,694.6,401.37z"/>
		</g>
		<g>
			<polygon class="st10" points="687.6,408.4 698.44,409.64 698.44,408.89 687.6,407.67 			"/>
		</g>
	</g>
	<g>
		<circle class="st11" cx="693.05" cy="395.58" r="10.49"/>
	</g>
</g>
<g>
	<polygon class="st9" points="359.39,537.99 348.55,536.77 348.55,535.68 359.39,536.93 	"/>
	<polygon class="st9" points="359.39,539.8 348.55,538.59 348.55,537.5 359.39,538.74 	"/>
	<polygon class="st9" points="359.39,541.62 348.55,540.4 348.55,539.32 359.39,540.56 	"/>
	<polyline class="st9" points="359.16,543.41 348.55,542.22 348.55,541.14 359.37,542.4 	"/>
	<g>
		<g>
			<path class="st10" d="M359.35,542.52l-0.1,0.49C359.29,542.85,359.33,542.68,359.35,542.52z"/>
		</g>
		<g>
			<path class="st10" d="M348.56,542.22c0.1,1.63,1.23,3,2.74,3.45c0.57,0.9,1.58,1.49,2.72,1.49c1.16,0,2.18-0.61,2.75-1.53
				c1.07-0.36,1.93-1.18,2.35-2.22L348.56,542.22z"/>
		</g>
		<g>
			<path class="st10" d="M348.55,541.14l10.82,1.27c0.01-0.14,0.02-0.27,0.02-0.41v-0.37l-10.84-1.22V541.14z"/>
		</g>
		<g>
			<polygon class="st10" points="348.55,539.32 359.39,540.56 359.39,539.8 348.55,538.59 			"/>
		</g>
		<g>
			<path class="st10" d="M355.54,530.47h-3.15c-2.11,0-3.84,1.73-3.84,3.84v1.37l10.84,1.24v-2.62
				C359.39,532.2,357.66,530.47,355.54,530.47z"/>
		</g>
		<g>
			<polygon class="st10" points="348.55,537.5 359.39,538.74 359.39,537.99 348.55,536.77 			"/>
		</g>
	</g>
	<g>
		<circle class="st11" cx="354" cy="524.68" r="10.49"/>
	</g>
</g>
<polygon class="st9" points="177.54,462.63 166.7,461.41 166.7,460.33 177.54,461.57 "/>
<polygon class="st9" points="177.54,464.45 166.7,463.23 166.7,462.15 177.54,463.39 "/>
<polygon class="st9" points="177.54,466.27 166.7,465.05 166.7,463.96 177.54,465.21 "/>
<polyline class="st9" points="177.32,468.06 166.7,466.86 166.7,465.78 177.53,467.05 "/>
<g>
	<g>
		<path class="st10" d="M177.5,467.16l-0.1,0.49C177.45,467.49,177.48,467.33,177.5,467.16z"/>
	</g>
	<g>
		<path class="st10" d="M166.71,466.87c0.1,1.63,1.23,3,2.74,3.45c0.57,0.9,1.58,1.49,2.72,1.49c1.16,0,2.18-0.61,2.75-1.53
			c1.07-0.36,1.93-1.18,2.35-2.22L166.71,466.87z"/>
	</g>
	<g>
		<path class="st10" d="M166.7,465.78l10.82,1.27c0.01-0.14,0.02-0.27,0.02-0.41v-0.37l-10.84-1.22V465.78z"/>
	</g>
	<g>
		<polygon class="st10" points="166.7,463.96 177.54,465.21 177.54,464.45 166.7,463.23 		"/>
	</g>
	<g>
		<path class="st10" d="M173.7,455.11h-3.15c-2.11,0-3.84,1.73-3.84,3.84v1.37l10.84,1.24v-2.62
			C177.54,456.84,175.81,455.11,173.7,455.11z"/>
	</g>
	<g>
		<polygon class="st10" points="166.7,462.15 177.54,463.39 177.54,462.63 166.7,461.41 		"/>
	</g>
</g>
<g>
	<circle class="st11" cx="172.15" cy="449.33" r="10.49"/>
</g>
<path class="st12" d="M369.62,385.07"/>
<path class="st12" d="M369.62,385.07"/>
<path class="st12" d="M369.62,385.07"/>
<path class="st12" d="M491.96,385.07"/>
<path class="st4" d="M481.27,515.39"/>
<path class="st13" d="M557.31,632.52"/>
<path class="st7" d="M197.95,128.6"/>
<path class="st14" d="M302.07,502.16c0,0,104.22-55.47,129.08,15.84C431.15,518,361.23,520.55,302.07,502.16z"/>
<path class="st15" d="M363.18,384.53"/>
<path class="st16" d="M363.18,384.53"/>
<path class="st17" d="M363.18,384.53"/>
<path class="st18" d="M474.83,514.86"/>
<path class="st13" d="M550.88,631.99"/>
</svg>
