<svg width="61" height="61" viewBox="0 0 61 61" fill="none" xmlns="http://www.w3.org/2000/svg">
<path d="M28.3209 0.0760841C21.0392 0.617271 14.3971 3.61138 9.18188 8.70698C2.32193 15.398 -0.967476 24.8724 0.248478 34.3888C1.76666 46.288 10.1589 56.198 21.6858 59.7052C30.5981 62.4182 40.5155 60.8087 48.0713 55.4319C57.3562 48.8182 62.1848 37.8468 60.751 26.6154C59.2328 14.7163 50.8406 4.80621 39.3137 1.29903C35.8837 0.251793 31.8844 -0.190994 28.3209 0.0760841ZM30.6473 18.9755C32.2077 19.1301 32.9879 19.3761 33.3393 19.833C33.4307 19.9595 33.5783 20.2687 33.6626 20.5218C33.8454 21.0559 33.8524 21.6674 33.7399 26.2359C33.6697 29.0894 33.7118 29.968 33.9438 30.6005C34.2179 31.3244 34.8223 31.6548 35.3565 31.3807C35.8415 31.1277 36.9731 29.8836 37.7111 28.7802C39.4191 26.2499 40.4593 24.289 41.7104 21.2597C41.9634 20.6623 42.3008 20.2687 42.6523 20.1774C42.7928 20.1352 44.7819 20.1001 47.2279 20.093L51.5505 20.079L51.916 20.2336C52.3869 20.4445 52.5697 20.7186 52.5697 21.2176C52.5697 22.1664 51.5786 24.1133 49.8777 26.4959C49.6458 26.8263 48.7672 27.993 47.9308 29.0964C46.0822 31.5283 45.6816 32.0976 45.4005 32.688C45.049 33.433 45.1334 34.0444 45.6886 34.7684C45.8503 34.9722 46.6656 35.7945 47.502 36.5958C49.8426 38.8378 50.9039 40.0186 51.7684 41.3118C52.3869 42.2466 52.6259 42.9354 52.5275 43.5258C52.4783 43.8491 52.155 44.2357 51.7895 44.4254C51.3537 44.6433 50.686 44.6855 47.01 44.7347L43.5308 44.7839L42.9685 44.5941C41.5347 44.1162 40.5788 43.322 38.407 40.8058C37.2051 39.4142 36.3124 38.7324 35.6939 38.7254C35.1246 38.7254 34.4006 39.4844 34.0914 40.4263C33.8805 41.0588 33.8032 41.5438 33.7399 42.6402C33.6626 43.9334 33.508 44.2357 32.7138 44.566C32.4256 44.6925 28.841 44.7347 27.8921 44.6363C25.9874 44.4254 24.2232 43.828 22.473 42.7948C19.9357 41.3048 18.3824 39.9694 16.7166 37.8468C13.8208 34.1499 11.8457 31.0011 9.44897 26.2499C8.52119 24.4015 7.43175 22.0118 7.25603 21.4425C7.08031 20.8521 7.33335 20.3671 7.90969 20.1844C8.1065 20.1211 9.20296 20.086 11.7333 20.0509L15.2827 20.0157L15.6974 20.1703C16.3511 20.4234 16.6252 20.7467 17.068 21.822C17.4476 22.7287 19.4929 26.8333 20.1325 27.9789C20.7862 29.1386 21.482 30.1085 22.0794 30.6849C22.8174 31.4088 23.1478 31.5845 23.6679 31.5423C24.1107 31.5002 24.2302 31.4018 24.5043 30.8043C25.172 29.3635 25.2775 24.4928 24.68 22.5811C24.3356 21.4917 23.8225 21.077 22.4027 20.7748C22.1567 20.7186 22.1567 20.6342 22.3817 20.3039C22.9299 19.5167 23.9069 19.1372 25.7695 18.9825C26.7886 18.8982 29.8109 18.8912 30.6473 18.9755Z" fill="#45668E"/>
</svg>
